<?xml version="1.0" encoding="utf-8"?>
<!-- Generator: Adobe Illustrator 16.0.0, SVG Export Plug-In . SVG Version: 6.00 Build 0)  -->
<!DOCTYPE svg PUBLIC "-//W3C//DTD SVG 1.1//EN" "http://www.w3.org/Graphics/SVG/1.1/DTD/svg11.dtd">
<svg version="1.1" id="Layer_1" xmlns="http://www.w3.org/2000/svg" xmlns:xlink="http://www.w3.org/1999/xlink" x="0px" y="0px"
	 width="800px" height="600px" viewBox="0 0 800 600" enable-background="new 0 0 800 600" xml:space="preserve">
<g>
	<g>
		<path fill="#FFFFFF" d="M696.813,363.179c-0.688,0-1.243-0.559-1.243-1.245v-12.52c0-0.687,0.557-1.243,1.243-1.243
			c0.688,0,1.245,0.558,1.245,1.243v12.52C698.058,362.62,697.5,363.179,696.813,363.179z"/>
	</g>
	<g>
		<path fill="#FFFFFF" d="M703.073,356.917h-12.521c-0.687,0-1.243-0.558-1.243-1.243c0-0.688,0.558-1.243,1.243-1.243h12.521
			c0.688,0,1.243,0.557,1.243,1.243C704.316,356.359,703.762,356.917,703.073,356.917z"/>
	</g>
</g>
<g opacity="0.4">
	<path fill="#F7B202" d="M730.974,304.97c3.396-58.041-16.393-115.863-48.011-164.655c-26.835-41.41-71.478-100.968-118.807-120.339
		c-59.862-24.5-115.22,15.623-172.92,23.558c-51.589,7.096-105.051-15.332-155.432-2.16c-36.097,9.437-65.871,36.708-83.987,69.327
		c-18.113,32.618-25.557,70.218-27.723,107.467c-4.192,71.983,11.216,144.828,43.134,209.413
		c15.95,32.274,38.264,57.533,58.152,86.737c20.268,29.752,34.146,55.287,70.985,67.687c32.702,11.014,70.327,6.265,99.271-12.521
		c25.902-16.812,44.115-43.379,69.315-61.226c46.596-33,108.432-29.839,161-46.888C692.925,439.656,726.997,372.974,730.974,304.97z
		"/>
</g>
<g>
	<path fill="#F7F7F7" d="M706.762,72.09c-14.302-29.575-41.447-54.392-73.966-59.075c-39.306-5.662-76.653,17.966-106.829,43.781
		c-30.178,25.813-59.074,55.844-97.079,67.362C360.905,144.766,290.53,99.76,219.496,99.303
		c-46.381-0.297-92.539,19.636-124.12,53.603c-117.667,126.546-0.301,329.635,134.518,385.389
		c108.847,45.002,239.258,19.576,334.505-49.717c90.852-66.088,146.796-182.104,157.193-294.018
		c0.819-8.791,1.354-17.554,1.604-26.267C724.136,135.458,721.063,101.665,706.762,72.09z"/>
</g>
</svg>
